<?xml version="1.0" encoding="UTF-8"?>
<svg width="314px" height="308px" viewBox="0 0 314 308" version="1.1" xmlns="http://www.w3.org/2000/svg" xmlns:xlink="http://www.w3.org/1999/xlink">
    <title>Group</title>
    <g id="Page-1" stroke="none" stroke-width="1" fill="none" fill-rule="evenodd">
        <g id="Ying-Yang" transform="translate(-17.000000, -20.000000)">
            <g id="Group" transform="translate(17.000000, 20.000000)">
                <path d="M183.914286,236.237817 C183.914286,254.407671 172.197926,269.126214 157.741794,269.126214 C143.289545,269.126214 131.580952,254.407671 131.580952,236.237817 C131.580952,218.067963 143.289545,203.339806 157.741794,203.339806 C172.197926,203.339806 183.914286,218.067963 183.914286,236.237817" id="Fill-1" fill="#00A3DB"></path>
                <path d="M157.994891,252.959064 C145.588809,252.959064 135.537407,243.132259 135.537407,231.00145 C135.537407,218.868708 145.588809,209.034171 157.994891,209.034171 C170.400972,209.034171 180.458179,218.868708 180.458179,231.00145 C180.458179,243.132259 170.400972,252.959064 157.994891,252.959064 M156.499652,0 C199.99446,0 235.252728,34.4730682 235.252728,76.9985503 C235.252728,119.527898 199.99446,153.995168 156.499652,153.995168 C113.008715,153.995168 77.752381,188.470169 77.752381,231.00145 C77.752381,273.524999 113.008715,308 156.499652,308 C243.485398,308 314,239.049998 314,153.995168 C314,68.9480693 243.485398,0 156.499652,0" id="Fill-3" fill="#00A3DB"></path>
                <path d="M157.494543,98.9638964 C145.088462,98.9638964 135.03706,89.1293592 135.03706,76.9985503 C135.03706,64.8677415 145.088462,55.0332043 157.494543,55.0332043 C169.900624,55.0332043 179.957831,64.8677415 179.957831,76.9985503 C179.957831,89.1293592 169.900624,98.9638964 157.494543,98.9638964 M157.494543,0 C70.5146022,0 0,68.9500022 0,153.997101 C0,239.051931 70.5146022,308 157.494543,308 C114.003605,308 78.7472715,273.524999 78.7472715,231.00145 C78.7472715,188.472102 114.003605,153.997101 157.494543,153.997101 C200.989351,153.997101 236.247619,119.529831 236.247619,76.9985503 C236.247619,34.4750011 200.989351,0 157.494543,0" id="Fill-41" fill="#CF108B"></path>
                <path d="M182.419048,78.4951456 C182.419048,93.7710853 170.032748,106.15534 154.752345,106.15534 C139.473861,106.15534 127.095238,93.7710853 127.095238,78.4951456 C127.095238,63.2192059 139.473861,50.8349515 154.752345,50.8349515 C170.032748,50.8349515 182.419048,63.2192059 182.419048,78.4951456" id="Fill-43" fill="#CF108B"></path>
            </g>
        </g>
    </g>
</svg>