<?xml version="1.0" encoding="UTF-8"?>
<svg width="61px" height="27px" viewBox="0 0 61 27" version="1.1" xmlns="http://www.w3.org/2000/svg" xmlns:xlink="http://www.w3.org/1999/xlink">
    <title>esc-brick</title>
    <g id="Page-1" stroke="none" stroke-width="1" fill="none" fill-rule="evenodd">
        <g id="esc-brick" stroke="#F1F2F2">
            <path d="M19.89636,20.02 L19.89636,16.05658 L9.35448,16.05658 L9.35448,14.56519 L17.64906,14.56519 L17.64906,11.01037 L9.35448,11.01037 L9.35448,9.68242 L19.67163,9.68242 L19.67163,5.719 L3.75666,5.719 L3.75666,20.02 L19.89636,20.02 Z M30.45867,20.51032 C35.83176,20.51032 38.63067,18.46732 38.63067,15.28024 C38.63067,11.78671 35.15757,10.88779 30.2748,10.47919 C28.21137,10.31575 27.23073,10.17274 27.23073,9.70285 C27.23073,9.15124 28.61997,9.02866 29.8662,9.02866 C31.92963,9.02866 33.78876,9.41683 35.44359,10.4179 L38.0382,7.25125 C35.87262,5.90287 32.80812,5.22868 29.84577,5.22868 C25.10601,5.22868 21.61248,6.98566 21.61248,10.19317 C21.61248,13.54369 25.55547,14.58562 30.0705,14.97379 C32.46081,15.17809 33.01242,15.40282 33.01242,15.89314 C33.01242,16.40389 32.21565,16.64905 30.54039,16.64905 C27.78234,16.64905 25.28988,15.79099 23.69634,14.7082 L20.95872,17.85442 C23.3286,19.55011 26.67912,20.51032 30.45867,20.51032 Z M49.13169,20.51032 C53.17683,20.51032 56.30262,18.87592 57.56928,16.62862 L52.97253,14.19745 C52.09404,15.54583 50.80695,16.1383 49.25427,16.1383 C47.08869,16.1383 45.61773,14.9125 45.61773,12.8695 C45.61773,10.8265 47.08869,9.6007 49.25427,9.6007 C50.80695,9.6007 52.05318,10.23403 52.89081,11.50069 L57.48756,9.06952 C56.26176,6.90394 53.17683,5.22868 49.33599,5.22868 C43.69731,5.22868 39.81561,7.94587 39.81561,12.8695 C39.81561,17.79313 43.69731,20.51032 49.13169,20.51032 Z" id="ESC" stroke-width="0.75" fill-opacity="0" fill="#FFFFFF" fill-rule="nonzero"></path>
            <rect id="Rectangle" x="0.5" y="0.5" width="59.19" height="25.7"></rect>
        </g>
    </g>
</svg>