<?xml version="1.0" encoding="UTF-8"?>
<svg width="315px" height="315px" viewBox="0 0 315 315" version="1.1" xmlns="http://www.w3.org/2000/svg" xmlns:xlink="http://www.w3.org/1999/xlink">
    <title>Asset 4</title>
    <g id="Page-1" stroke="none" stroke-width="1" fill="none" fill-rule="evenodd">
        <g id="Artboard-Copy" transform="translate(-17.000000, -17.000000)">
            <g id="Asset-4" transform="translate(18.000000, 18.000000)">
                <g id="Group" transform="translate(51.000000, 53.000000)">
                    <path d="M105.566,0.007 L106.407287,0.0137990382 C163.779026,0.923369109 210,46.6834393 210,102.996768 C210,159.884089 162.840553,206 104.665373,206 C75.5790767,206 52,182.942045 52,154.50097 C52,126.054723 75.5790767,102.996768 104.665373,102.996768 L105.536369,102.98987 C134.223506,102.535173 157.334627,79.6595343 157.334627,51.4990304 C157.334627,23.6255099 134.688039,0.924420782 106.403951,0.0275266273 L105.566,0.007 Z" id="Combined-Shape" fill="#00A3DB"></path>
                    <path d="M105.330745,0 C134.419629,0 158,23.0579553 158,51.4990304 C158,79.9452767 134.419629,102.998061 105.330745,102.998061 C76.2444494,102.998061 52.6653727,126.056016 52.6653727,154.50097 C52.6653727,182.942045 76.2444494,206 105.330745,206 L103.588946,205.986201 C46.2209743,205.07663 0,159.316509 0,102.998061 C0,46.1159106 47.1594474,0 105.330745,0 Z" id="Combined-Shape" fill="#CF108B"></path>
                </g>
                <polygon id="Stroke-5" stroke="#FFFFFF" points="213.762427 40.0372375 216.584162 34.9259808 234.604553 45.0475797 237.994013 38.9062082 219.973622 28.7846092 222.591392 24.0429357 244.452045 36.3230576 248 29.8920482 217.926175 13 202 41.8550101 232.523328 59 236.073882 52.5689906"></polygon>
                <path d="M262.421762,58.8393439 C258.74147,54.2435942 256.341166,51.2786783 257.95751,49.7740941 C259.677249,48.1744972 263.311733,51.1446193 265.951545,53.9507469 C269.426358,57.7122074 271.695785,61.6324561 272.314838,66.0616083 L280,65.5188647 C279.247451,60.0588901 276.043555,54.1837232 271.215462,49.0517375 C264.068209,41.4572317 256.032293,38.5391714 250.87177,43.3418666 C245.504459,48.3371902 250.006666,56.2753034 256.083336,63.967425 C260.306772,69.2790236 261.593304,71.6738635 260.046325,73.1159736 C258.4627,74.5880192 255.774464,73.2383187 251.910942,69.1332508 C247.4035,64.343571 245.043768,59.1608252 244.780703,54.0809012 L237,54.4531427 C237.514351,61.0350477 240.690762,67.7692333 246.484736,73.9281367 C254.660691,82.6172405 262.314442,84.0294151 267.268178,79.4206499 C272.808248,74.266538 269.141044,67.282456 262.421762,58.8393439 Z" id="Stroke-7" stroke="#FFFFFF"></path>
                <path d="M274.870721,103.800449 C272.019255,97.6950835 273.220284,92.183494 278.915398,89.5355404 C284.613118,86.8875868 289.616535,89.516051 292.469302,95.6214161 C294.329463,99.6063395 294.291687,103.287229 292.142341,106.661486 L299.454025,112.344582 C302.456595,107.698319 303.170439,100.142946 299.584288,92.4680386 C294.196595,80.9368372 284.847592,76.0969808 274.81601,80.7601337 C264.784427,85.420688 262.486581,95.674687 267.716656,106.868073 C271.460425,114.880796 277.653146,119.278894 283.3183,120 L283.677827,110.802324 C279.518518,110.20595 276.733487,107.785372 274.870721,103.800449 Z" id="Stroke-9" stroke="#FFFFFF"></path>
                <polygon id="Stroke-11" stroke="#FFFFFF" points="286.626903 146.162174 292.474195 145.996522 293.066525 166.695217 300.093236 166.496957 299.500906 145.798261 304.923608 145.644348 305.643053 170.754348 313 170.545652 312.009289 136 279 136.937826 280.003816 172 287.360763 171.79"></polygon>
                <path d="M294.640722,197.739635 C296.736881,192.297744 298.070561,188.764769 300.199473,189.373147 C302.465944,190.018904 301.75456,194.598496 300.676349,198.252632 C299.199867,203.097744 296.968768,207.003222 293.453772,209.76928 L297.854395,216 C302.196064,212.599785 305.639004,206.914286 307.606773,200.22986 C310.523054,190.335983 308.935214,182.057143 302.14235,180.118582 C295.074365,178.103974 290.509979,185.932975 286.962231,194.96971 C284.526757,201.232653 283.11316,203.533405 281.074645,202.953383 C278.991588,202.357895 278.783282,199.399785 280.358021,194.053276 C282.19609,187.813534 285.472648,183.191407 289.734401,180.396992 L285.432035,174 C280.000364,177.766273 275.797566,183.861654 273.434147,191.883996 C270.099945,203.203437 272.790889,210.396992 279.315182,212.258217 C286.607194,214.338561 290.773309,207.700537 294.640722,197.739635 Z" id="Stroke-13" stroke="#FFFFFF"></path>
                <path d="M262.857073,230.804744 C266.649251,225.302845 271.987063,223.542597 277.144789,227.04252 C282.305106,230.543728 282.587544,236.118917 278.796661,241.620816 C276.322092,245.213316 273.142726,247.037853 269.160096,246.913132 L267.991478,255.990815 C273.500307,256.195256 280.34359,252.989779 285.108753,246.07351 C292.269454,235.680463 291.681258,225.300273 282.594022,219.13362 C273.509376,212.966967 263.54762,216.189159 256.598099,226.276188 C251.621755,233.498476 250.990805,240.975349 253.243828,246.150658 L261.316621,241.814971 C259.719165,237.983314 260.382504,234.395958 262.857073,230.804744 Z" id="Stroke-15" stroke="#FFFFFF"></path>
                <polygon id="Stroke-17" stroke="#FFFFFF" points="232.438271 263.176855 235.546514 268.061949 218.159823 279.105268 221.894905 284.973084 239.281596 273.929765 242.16402 278.459626 221.070799 291.856036 224.982383 298 254 279.5707 236.452382 252 207 270.706744 210.911584 276.850709"></polygon>
                <path d="M192.651019,296.392506 C198.424971,295.383188 202.160446,294.707283 202.710964,296.832298 C203.295241,299.093532 198.967699,300.838431 195.256893,301.797153 C190.311316,303.025717 185.800701,303.129503 181.627667,301.554553 L178.451799,308.501717 C183.592135,310.454188 190.258082,310.469756 197.047376,308.715776 C207.093039,306.119832 213.464251,300.51929 211.710122,293.735588 C209.884583,286.682044 200.793239,286.811776 191.169554,288.428241 C184.512695,289.569885 181.804249,289.546533 181.275803,287.511033 C180.738269,285.431425 183.196125,283.735824 188.626003,282.33212 C194.962158,280.694899 200.623149,281.115232 205.197386,283.310302 L208.566714,276.361841 C202.559052,273.668598 195.151723,273.218427 187.005609,275.322685 C175.512239,278.292257 170.639372,284.278105 172.324685,290.789368 C174.207354,298.068647 182.066524,298.210055 192.651019,296.392506 Z" id="Stroke-19" stroke="#FFFFFF"></path>
                <path d="M146.96188,285.808775 C153.594436,286.226662 157.808045,289.918654 157.424757,296.188271 C157.04275,302.455284 152.412524,305.591394 145.779968,305.174808 C141.449706,304.901424 138.277001,303.104897 136.363122,299.604275 L128,303.302776 C130.61636,308.163811 136.831016,312.406478 145.168501,312.929813 C157.695238,313.718723 166.285257,307.826637 166.959537,296.788415 C167.633817,285.748891 159.825757,278.824453 147.665644,278.058977 C138.961536,277.510906 132.237965,280.844894 128.949889,285.472902 L136.75282,290.190737 C139.224326,286.824203 142.631619,285.536692 146.96188,285.808775 Z" id="Stroke-21" stroke="#FFFFFF"></path>
                <polygon id="Stroke-23" stroke="#FFFFFF" points="104.190147 276.064423 101.536705 281.233851 82.9507935 271.896409 79.7629866 278.108815 98.3462724 287.446256 95.8858317 292.240316 73.3387944 280.911736 70 287.416383 101.016783 303 116 273.81741 84.5197511 258 81.1809567 264.504647"></polygon>
                <path d="M54.6586528,258.73635 C58.4760037,263.101467 60.9651293,265.913805 59.420289,267.444911 C57.7768695,269.07418 54.0658804,266.301362 51.3458719,263.650931 C47.7645923,260.096624 45.3688577,256.34344 44.5906006,252.030592 L37,252.842678 C37.9481765,258.160114 41.3413773,263.79244 46.3170342,268.639453 C53.679346,275.811809 61.7472776,278.371726 66.6788332,273.481367 C71.8062502,268.39723 67.0498024,260.791422 60.743326,253.485206 C56.3617387,248.441865 54.9984917,246.143294 56.4771802,244.677207 C57.9895931,243.176698 60.7018189,244.398013 64.6826038,248.274858 C69.3249072,252.798058 71.8568369,257.785305 72.3095231,262.747056 L80,262.098153 C79.2437936,255.675414 75.8467015,249.200406 69.8761727,243.3845 C61.452837,235.178234 53.8207294,234.075481 49.0876293,238.769511 C43.7954813,244.018105 47.6880637,250.718763 54.6586528,258.73635 Z" id="Stroke-25" stroke="#FFFFFF"></path>
                <path d="M40.8911824,213.889225 C43.9519249,219.88997 42.9678839,225.452239 37.4179445,228.317296 C31.8680052,231.182353 26.8042674,228.742761 23.7448181,222.743317 C21.7469951,218.825657 21.6461341,215.139597 23.6504225,211.682532 L16.1828317,206.272493 C13.3794141,211.037179 12.95916,218.625286 16.8061008,226.167853 C22.58621,237.501872 32.0438653,241.990721 41.8183275,236.943693 C51.5914966,231.896665 53.4832863,221.548892 47.8725717,210.547959 C43.8549432,202.671005 37.5459604,198.506134 31.8977462,198 L31.8899877,207.217103 C36.0382182,207.655579 38.8933594,209.971565 40.8911824,213.889225 Z" id="Stroke-27" stroke="#FFFFFF"></path>
                <polygon id="Stroke-29" stroke="#FFFFFF" points="27.0851459 172.946872 21.2889013 173.329894 19.925079 152.760922 12.9602157 153.221848 14.3227366 173.788223 8.94683027 174.14398 7.29280535 149.191669 0 149.673369 2.27737498 184 35 181.84079 32.6887897 147 25.3959844 147.4817"></polygon>
                <path d="M17.2580497,121.344183 C15.3587198,126.927138 14.1498148,130.550842 11.979341,130.016026 C9.66866596,129.449904 10.2056631,124.791788 11.1487148,121.0546 C12.4475602,116.099074 14.5452881,112.064476 17.9828636,109.134729 L13.2993489,103 C9.05363225,106.604137 5.80387346,112.484502 4.07913376,119.319709 C1.52641318,129.436859 3.45351882,137.74868 10.3842213,139.449655 C17.592681,141.217156 21.8913037,133.127089 25.1132868,123.8526 C27.3234402,117.425679 28.6606425,115.045096 30.7398533,115.555128 C32.8653569,116.076899 33.1920522,119.060128 31.812525,124.528294 C30.2041787,130.908255 27.0787493,135.707249 22.8899068,138.695695 L27.4821586,145 C32.8137734,140.984968 36.8134765,134.659793 38.8834287,126.45624 C41.8025242,114.882042 38.8040695,107.710293 32.1498015,106.077148 C24.7098776,104.250947 20.7683712,111.123983 17.2580497,121.344183 Z" id="Stroke-31" stroke="#FFFFFF"></path>
                <path d="M47.680859,85.872873 C44.1702,91.492096 39.0033539,93.4437131 33.8148999,90.1526003 C28.6251749,86.8614875 28.1383601,81.3229416 31.6490191,75.7062799 C33.9394635,72.0373934 36.9874578,70.1037046 40.8972286,70.0768122 L41.7018076,61 C36.2947318,61.0012806 29.7055732,64.4499058 25.2937349,71.5110715 C18.6626314,82.1233095 19.6299056,92.4333286 28.7688043,98.2279922 C37.907703,104.025217 47.5512112,100.444691 53.986572,90.1449167 C58.594153,82.7712874 58.9335252,75.3054556 56.5286856,70.239447 L48.777781,74.855969 C50.4873525,78.6106549 49.9725745,82.2065478 47.680859,85.872873 Z" id="Stroke-33" stroke="#FFFFFF"></path>
                <polygon id="Stroke-35" stroke="#FFFFFF" points="77.0273815 53.5323257 73.7571883 48.7091529 90.6033253 36.8646066 86.6741934 31.0683952 69.8267669 42.9116283 66.7938433 38.4390646 87.2325505 24.0693451 83.1177294 18 55 37.7693619 73.4631804 65 102 44.9364942 97.8851789 38.8684622"></polygon>
                <path d="M116.190687,18.0555997 C110.499066,19.306252 106.817694,20.1400202 106.191022,18.0015103 C105.524378,15.7271174 109.752476,13.783857 113.397744,12.6651301 C118.258961,11.223186 122.730765,10.9408658 126.933074,12.3788521 L129.818857,5.19551696 C124.643015,3.41188628 118.02686,3.65858668 111.357838,5.7047488 C101.487118,8.73507401 95.3777162,14.6756724 97.3789386,21.4988513 C99.4588173,28.5964349 108.477213,28.1096304 117.964967,26.0898533 C124.526965,24.6703366 127.216752,24.5885429 127.817635,26.634705 C128.431412,28.727041 126.05625,30.5476108 120.721806,32.1848043 C114.497643,34.0964026 108.862757,33.890599 104.238799,31.8391599 L101.162177,39.0317298 C107.227738,41.5330344 114.594351,41.7005796 122.597952,39.2454489 C133.890932,35.7784508 138.496838,29.5054005 136.576851,22.9553071 C134.428632,15.6308119 126.626185,15.7943993 116.190687,18.0555997 Z" id="Stroke-37" stroke="#FFFFFF"></path>
                <path d="M162.559351,27.2106422 C155.862939,27.0477382 151.481783,23.5159794 151.631655,17.2304911 C151.781526,10.9450029 156.328057,7.63088377 163.023177,7.79378777 C167.393997,7.89934957 170.657578,9.575306 172.715726,13.0041096 L181,8.98233541 C178.18345,4.22032546 171.766109,0.215493342 163.34876,0.0108859088 C150.701418,-0.296676857 142.271148,5.92625623 142.006289,16.9959094 C141.74143,28.0642592 149.864205,34.6924975 162.140744,34.9909376 C170.928897,35.2046677 177.573628,31.6129601 180.711885,26.8561631 L172.675674,22.4356 C170.313907,25.8982876 166.930171,27.3175073 162.559351,27.2106422 Z" id="Stroke-39" stroke="#FFFFFF"></path>
            </g>
        </g>
    </g>
</svg>